<svg xmlns="http://www.w3.org/2000/svg" viewBox="0 0 20 20">
  <rect x="0" y="0" width="20" height="20" rx="4" fill="#11151f"/>
  <g transform="translate(3,3.478) scale(0.014168) translate(-425.333,-611.012)">
    <path fill="#ffffff" d="M 452.5,611.5 C 533.834,611.333 615.167,611.5 696.5,612C 711.229,615.063 720.396,623.896 724,638.5C 724.333,789.167 724.667,939.833 725,1090.5C 882.221,933.279 1039.39,776.113 1196.5,619C 1200.01,616.746 1203.67,614.746 1207.5,613C 1266.11,611.345 1324.78,611.012 1383.5,612C 1398.66,614.822 1408.49,623.655 1413,638.5C 1413.67,702.167 1413.67,765.833 1413,829.5C 1411.77,834.518 1409.77,839.185 1407,843.5C 1178.83,1071.67 950.667,1299.83 722.5,1528C 720.043,1529.56 717.376,1530.56 714.5,1531C 627.5,1531.67 540.5,1531.67 453.5,1531C 439.009,1527.18 429.842,1518.01 426,1503.5C 425.333,1215.17 425.333,926.833 426,638.5C 430.351,624.984 439.184,615.984 452.5,611.5 Z"/>
  </g>
</svg>
